<?xml version="1.0" encoding="UTF-8"?>
<svg id="Layer_1" xmlns="http://www.w3.org/2000/svg" version="1.1" viewBox="0 0 1600 900">
  <!-- Generator: Adobe Illustrator 29.6.0, SVG Export Plug-In . SVG Version: 2.1.1 Build 207)  -->
  <defs>
    <style>
      .st0 {
        fill: #a7a7a7;
      }

      .st1 {
        font-family: NVIDIASans-Medium, 'NVIDIA Sans';
        font-size: 14px;
        font-weight: 500;
      }

      .st2 {
        fill: #828282;
      }

      .st3, .st4 {
        font-family: NVIDIASans-Regular, 'NVIDIA Sans';
      }

      .st3, .st5, .st6 {
        font-size: 12px;
      }

      .st7 {
        fill: #f4f4f4;
      }

      .st8 {
        font-size: 7px;
      }

      .st9 {
        font-size: 15px;
      }

      .st9, .st10 {
        font-family: NVIDIASans-Bold, 'NVIDIA Sans';
        font-weight: 700;
      }

      .st5 {
        letter-spacing: 0em;
      }

      .st10 {
        font-size: 19.8px;
      }

      .st11 {
        fill: none;
        stroke: #000;
        stroke-miterlimit: 10;
      }

      .st12 {
        fill: #76b900;
      }

      .st13 {
        fill: #e0e0e0;
      }

      .st14 {
        fill: #ff1d25;
      }
    </style>
  </defs>
  <rect class="st14" x="-2663.28" y="-394.55" width="20.33" height="20.33"/>
  <rect class="st14" x="-2697.79" y="-162.63" width="20.33" height="10"/>
  <rect class="st14" x="-2521.34" y="-150.4" width="30.5" height="15"/>
  <rect class="st14" x="-1861.43" y="-266.19" width="10" height="10"/>
  <g>
    <rect class="st12" x="1396.83" y="716.36" width="64.02" height="21.8"/>
    <text class="st3" transform="translate(1408.94 730.79)"><tspan x="0" y="0">NVIDIA</tspan></text>
  </g>
  <g>
    <rect class="st2" x="1470.62" y="716.36" width="64.02" height="21.8"/>
    <text class="st4" transform="translate(1477.56 730.96)"><tspan class="st6" x="0" y="0">3</tspan><tspan class="st8" x="7.2" y="-3.96">RD</tspan><tspan class="st5" x="16.78" y="0" xml:space="preserve"> Party</tspan></text>
  </g>
  <g>
    <g>
      <line class="st11" x1="167.81" y1="374.02" x2="167.81" y2="457.58"/>
      <polygon points="164.32 375.04 167.81 369 171.3 375.04 164.32 375.04"/>
      <polygon points="164.32 456.56 167.81 462.6 171.3 456.56 164.32 456.56"/>
    </g>
    <g>
      <g>
        <line class="st11" x1="401.12" y1="277.12" x2="282.84" y2="277.12"/>
        <polygon points="400.09 273.63 406.14 277.12 400.09 280.61 400.09 273.63"/>
        <polygon points="283.86 273.63 277.81 277.12 283.86 280.61 283.86 273.63"/>
      </g>
      <g>
        <rect class="st7" x="60.02" y="187.96" width="215.59" height="178.32"/>
        <g>
          <rect class="st13" x="69.76" y="232.16" width="196.11" height="25.76"/>
          <text class="st3" transform="translate(134.18 248.58)"><tspan x="0" y="0">NVIDIA TAO</tspan></text>
        </g>
        <g>
          <rect class="st13" x="69.76" y="266.02" width="196.11" height="24.61"/>
          <text class="st3" transform="translate(134.82 281.86)"><tspan x="0" y="0">NVIDIA NIM</tspan></text>
        </g>
        <g>
          <rect class="st13" x="69.76" y="298.69" width="196.11" height="24.61"/>
          <text class="st3" transform="translate(123.92 314.53)"><tspan x="0" y="0">NVIDIA Cosmos</tspan></text>
        </g>
        <g>
          <rect class="st13" x="69.76" y="331.37" width="196.11" height="24.61"/>
          <text class="st3" transform="translate(127.27 347.21)"><tspan x="0" y="0">NVIDIA CUOpt</tspan></text>
        </g>
        <text class="st9" transform="translate(109.04 215.25)"><tspan x="0" y="0">NVIDIA AI (DGX)</tspan></text>
      </g>
    </g>
    <g>
      <g>
        <line class="st11" x1="401.12" y1="552.49" x2="282.84" y2="552.49"/>
        <polygon points="400.09 549 406.14 552.49 400.09 555.98 400.09 549"/>
        <polygon points="283.86 549 277.81 552.49 283.86 555.98 283.86 549"/>
      </g>
      <g>
        <rect class="st7" x="60.02" y="464.06" width="215.59" height="176.85"/>
        <g>
          <rect class="st13" x="69.76" y="507.26" width="196.11" height="25.76"/>
          <text class="st3" transform="translate(119.6 523.68)"><tspan x="0" y="0">NVIDIA Isaac Sim</tspan></text>
        </g>
        <g>
          <rect class="st13" x="69.76" y="541.04" width="196.11" height="24.61"/>
          <text class="st3" transform="translate(120.25 556.88)"><tspan x="0" y="0">NVIDIA Isaac Lab</tspan></text>
        </g>
        <g>
          <rect class="st13" x="69.76" y="574.02" width="196.11" height="24.61"/>
          <text class="st3" transform="translate(130.78 589.87)"><tspan x="0" y="0">NVIDIA Mega</tspan></text>
        </g>
        <g>
          <rect class="st13" x="69.76" y="606.94" width="196.11" height="24.61"/>
          <text class="st3" transform="translate(116.09 622.78)"><tspan x="0" y="0">NVIDIA Omniverse</tspan></text>
        </g>
        <text class="st9" transform="translate(78.3 491.35)"><tspan x="0" y="0">NVIDIA Omniverse (OVX)</tspan></text>
      </g>
    </g>
  </g>
  <g>
    <g>
      <rect class="st7" x="408.7" y="136.97" width="1124.39" height="554.93"/>
      <text class="st10" transform="translate(877.63 172.53)"><tspan x="0" y="0">NVIDIA Jetson AGX</tspan></text>
      <g>
        <rect class="st2" x="418.62" y="194.23" width="1104.46" height="43.12"/>
        <text class="st1" transform="translate(869.76 220.64)"><tspan x="0" y="0">Ecosystem Apps and Services </tspan></text>
      </g>
      <g>
        <rect class="st13" x="1344.92" y="461.05" width="320.49" height="36.03" transform="translate(1026.1 1984.24) rotate(-90)"/>
        <text class="st3" transform="translate(1508.7 543.09) rotate(-90) scale(1.02 1)"><tspan x="0" y="0">Jetson Platform Services</tspan></text>
      </g>
      <text class="st3" transform="translate(776.51 499.44)"><tspan x="0" y="0">Disk Encryption</tspan></text>
      <g>
        <rect class="st13" x="418.62" y="319" width="1058.31" height="320.46"/>
        <text class="st9" transform="translate(890.22 339.73)"><tspan x="0" y="0">NVIDIA JetPack</tspan></text>
        <g>
          <g>
            <rect class="st7" x="429.02" y="530.24" width="1037.51" height="98.54"/>
            <path class="st0" d="M1466.03,530.74v97.54H429.52v-97.54h1036.51M1467.03,529.74H428.52v99.54h1038.51v-99.54h0Z"/>
          </g>
          <text class="st1" transform="translate(888.53 550.63)"><tspan x="0" y="0">Operating System</tspan></text>
          <g>
            <g>
              <rect class="st12" x="439.48" y="596.63" width="648.84" height="21.8"/>
              <text class="st3" transform="translate(684.18 611.06)"><tspan x="0" y="0">Kernel v6.8/ RealTime Kernel</tspan></text>
            </g>
            <rect class="st2" x="1098.02" y="596.63" width="358.5" height="21.8"/>
            <text class="st3" transform="translate(1192.82 611.06)"><tspan x="0" y="0">Bring Your Own Kernel (BYOK)</tspan></text>
          </g>
          <g>
            <rect class="st12" x="439.36" y="566.07" width="377.97" height="21.8"/>
            <text class="st3" transform="translate(546.97 580.51)"><tspan x="0" y="0">Jetson Linux (L4T) 24.04 LTS</tspan></text>
            <rect class="st12" x="827.35" y="566.07" width="125.41" height="21.8"/>
            <text class="st3" transform="translate(863.13 580.51)"><tspan x="0" y="0">HSB Core</tspan></text>
            <rect class="st2" x="962.55" y="566.07" width="160.79" height="21.8"/>
            <text class="st3" transform="translate(993.18 580.51)"><tspan x="0" y="0">Canonical Ubuntu</tspan></text>
            <rect class="st2" x="1133.12" y="566.07" width="159.47" height="21.8"/>
            <text class="st3" transform="translate(1198.04 580.51)"><tspan x="0" y="0">Yocto</tspan></text>
            <rect class="st2" x="1302.39" y="566.07" width="154.04" height="21.8"/>
            <text class="st3" transform="translate(1351.88 580.51)"><tspan x="0" y="0">Windriver</tspan></text>
          </g>
        </g>
        <g>
          <g>
            <rect class="st7" x="428.93" y="351.3" width="1037.69" height="93.62"/>
            <path class="st0" d="M1466.12,351.8v92.62H429.43v-92.62h1036.69M1467.12,350.8H428.43v94.62h1038.69v-94.62h0Z"/>
          </g>
          <text class="st1" transform="translate(920.24 370.95)"><tspan x="0" y="0">AI Stack</tspan></text>
          <g>
            <g>
              <rect class="st12" x="439.25" y="381.99" width="197.27" height="21.8"/>
              <text class="st3" transform="translate(525.79 396.42)"><tspan x="0" y="0">LLM</tspan></text>
            </g>
            <g>
              <rect class="st12" x="646.34" y="381.99" width="196.13" height="21.8"/>
              <text class="st3" transform="translate(731.77 396.42)"><tspan x="0" y="0">VLM</tspan></text>
            </g>
            <g>
              <rect class="st12" x="1262.73" y="381.99" width="193.57" height="21.8"/>
              <text class="st3" transform="translate(1324.69 396.42)"><tspan x="0" y="0">CNN Models</tspan></text>
            </g>
            <g>
              <rect class="st12" x="852.37" y="381.99" width="195.8" height="21.8"/>
              <text class="st3" transform="translate(917.2 396.42)"><tspan x="0" y="0">VLA Models</tspan></text>
            </g>
            <g>
              <rect class="st12" x="1058.02" y="381.99" width="194.87" height="21.8"/>
              <text class="st3" transform="translate(1098.75 396.42)"><tspan x="0" y="0">Vision Transformers</tspan></text>
            </g>
            <g>
              <rect class="st12" x="439.25" y="412.76" width="137.17" height="21.8"/>
              <text class="st3" transform="translate(471.44 427.19)"><tspan x="0" y="0">NVDIA CUDA</tspan></text>
            </g>
            <g>
              <rect class="st12" x="585.78" y="412.76" width="137.17" height="21.8"/>
              <text class="st3" transform="translate(613.01 427.19)"><tspan x="0" y="0">NVIDIA cuDNN</tspan></text>
            </g>
            <g>
              <rect class="st12" x="732.31" y="412.76" width="137.17" height="21.8"/>
              <text class="st3" transform="translate(750.29 427.19)"><tspan x="0" y="0">NVIDIA TensortRT</tspan></text>
            </g>
            <g>
              <rect class="st12" x="1171.89" y="412.76" width="137.17" height="21.8"/>
              <text class="st3" transform="translate(1224.54 427.19)"><tspan x="0" y="0">VLLM</tspan></text>
            </g>
            <g>
              <rect class="st12" x="1317.72" y="412.76" width="138.58" height="21.8"/>
              <text class="st3" transform="translate(1363.02 427.19)"><tspan x="0" y="0">SGLANG</tspan></text>
            </g>
            <g>
              <rect class="st12" x="878.84" y="412.76" width="137.17" height="21.8"/>
              <text class="st3" transform="translate(909.06 427.19)"><tspan x="0" y="0">NVIDIA Triton</tspan></text>
            </g>
            <g>
              <rect class="st12" x="1027.3" y="412.76" width="133.29" height="21.8"/>
              <text class="st3" transform="translate(1071.85 427.19)"><tspan x="0" y="0">Pytorch</tspan></text>
            </g>
          </g>
        </g>
        <g>
          <g>
            <rect class="st7" x="428.97" y="455.78" width="1037.61" height="63.45"/>
            <path class="st0" d="M1466.08,456.28v62.45H429.47v-62.45h1036.61M1467.08,455.28H428.47v64.45h1038.61v-64.45h0Z"/>
          </g>
          <text class="st1" transform="translate(920.49 475.57)"><tspan x="0" y="0">Security</tspan></text>
          <g>
            <g>
              <rect class="st12" x="1200.89" y="487.98" width="126.97" height="21.8"/>
              <text class="st3" transform="translate(1223.62 502.41)"><tspan x="0" y="0">Firmware TPM</tspan></text>
            </g>
            <g>
              <rect class="st12" x="1337.64" y="487.98" width="118.79" height="21.8"/>
              <text class="st3" transform="translate(1357.86 502.41)"><tspan x="0" y="0">Measure Boot</tspan></text>
            </g>
            <g>
              <rect class="st12" x="893.35" y="487.98" width="157.77" height="21.8"/>
              <text class="st3" transform="translate(917.1 501.8)"><tspan x="0" y="0">Memory Encryption</tspan></text>
            </g>
            <g>
              <rect class="st12" x="1060.8" y="487.98" width="130.27" height="21.8"/>
              <text class="st3" transform="translate(1080.09 502.41)"><tspan x="0" y="0">Secture Storage</tspan></text>
            </g>
            <g>
              <rect class="st12" x="762.07" y="487.98" width="121.42" height="21.8"/>
              <text class="st3" transform="translate(778.65 502.41)"><tspan x="0" y="0">Disk Encryption</tspan></text>
            </g>
            <g>
              <rect class="st12" x="439.38" y="487.98" width="100.21" height="21.8"/>
              <text class="st3" transform="translate(455.04 502.41)"><tspan x="0" y="0">Secure Boot</tspan></text>
            </g>
            <g>
              <rect class="st12" x="549.68" y="487.98" width="202.63" height="21.8"/>
              <text class="st3" transform="translate(562.31 502.41)"><tspan x="0" y="0">Trusted Execution Environment</tspan></text>
            </g>
          </g>
        </g>
      </g>
      <g>
        <g>
          <rect class="st13" x="418.62" y="259.33" width="361.52" height="37.52"/>
          <text class="st1" transform="translate(556.65 283.53)"><tspan x="0" y="0">NVIDIA Isaac</tspan></text>
        </g>
        <g>
          <rect class="st13" x="791.64" y="259.6" width="362.73" height="37.52"/>
          <text class="st1" transform="translate(911.61 283.79)"><tspan x="0" y="0">NVIDIA Metropolis</tspan></text>
        </g>
        <g>
          <rect class="st13" x="1164.09" y="259.34" width="358.98" height="37.52"/>
          <text class="st1" transform="translate(1288.33 284.06)"><tspan x="0" y="0">NVIDIA Holoscan</tspan></text>
        </g>
      </g>
    </g>
    <g>
      <rect class="st12" x="418.62" y="661.38" width="1104.43" height="20.79"/>
      <text class="st3" transform="translate(835.37 675.89)"><tspan x="0" y="0">Jetson GPU | CPU | DLA | PVA | IPS | Video Codec</tspan></text>
    </g>
  </g>
</svg>