<svg aria-roledescription="gitGraph" role="graphics-document document" viewBox="-198.2265625 -34.95000076293945 706.2265625 478.9901428222656" style="max-width: 706.227px; background-color: rgb(255, 255, 255);" xmlns:xlink="http://www.w3.org/1999/xlink" xmlns="http://www.w3.org/2000/svg" width="100%" id="mermaid-1747663795784"><style>#mermaid-1747663795784{font-family:"trebuchet ms",verdana,arial,sans-serif;font-size:16px;fill:#333;}@keyframes edge-animation-frame{from{stroke-dashoffset:0;}}@keyframes dash{to{stroke-dashoffset:0;}}#mermaid-1747663795784 .edge-animation-slow{stroke-dasharray:9,5!important;stroke-dashoffset:900;animation:dash 50s linear infinite;stroke-linecap:round;}#mermaid-1747663795784 .edge-animation-fast{stroke-dasharray:9,5!important;stroke-dashoffset:900;animation:dash 20s linear infinite;stroke-linecap:round;}#mermaid-1747663795784 .error-icon{fill:#552222;}#mermaid-1747663795784 .error-text{fill:#552222;stroke:#552222;}#mermaid-1747663795784 .edge-thickness-normal{stroke-width:1px;}#mermaid-1747663795784 .edge-thickness-thick{stroke-width:3.5px;}#mermaid-1747663795784 .edge-pattern-solid{stroke-dasharray:0;}#mermaid-1747663795784 .edge-thickness-invisible{stroke-width:0;fill:none;}#mermaid-1747663795784 .edge-pattern-dashed{stroke-dasharray:3;}#mermaid-1747663795784 .edge-pattern-dotted{stroke-dasharray:2;}#mermaid-1747663795784 .marker{fill:#333333;stroke:#333333;}#mermaid-1747663795784 .marker.cross{stroke:#333333;}#mermaid-1747663795784 svg{font-family:"trebuchet ms",verdana,arial,sans-serif;font-size:16px;}#mermaid-1747663795784 p{margin:0;}#mermaid-1747663795784 .commit-id,#mermaid-1747663795784 .commit-msg,#mermaid-1747663795784 .branch-label{fill:lightgrey;color:lightgrey;font-family:'trebuchet ms',verdana,arial,sans-serif;font-family:var(--mermaid-font-family);}#mermaid-1747663795784 .branch-label0{fill:#ffffff;}#mermaid-1747663795784 .commit0{stroke:hsl(240, 100%, 46.2745098039%);fill:hsl(240, 100%, 46.2745098039%);}#mermaid-1747663795784 .commit-highlight0{stroke:hsl(60, 100%, 3.7254901961%);fill:hsl(60, 100%, 3.7254901961%);}#mermaid-1747663795784 .label0{fill:hsl(240, 100%, 46.2745098039%);}#mermaid-1747663795784 .arrow0{stroke:hsl(240, 100%, 46.2745098039%);}#mermaid-1747663795784 .branch-label1{fill:black;}#mermaid-1747663795784 .commit1{stroke:hsl(60, 100%, 43.5294117647%);fill:hsl(60, 100%, 43.5294117647%);}#mermaid-1747663795784 .commit-highlight1{stroke:rgb(0, 0, 160.5);fill:rgb(0, 0, 160.5);}#mermaid-1747663795784 .label1{fill:hsl(60, 100%, 43.5294117647%);}#mermaid-1747663795784 .arrow1{stroke:hsl(60, 100%, 43.5294117647%);}#mermaid-1747663795784 .branch-label2{fill:black;}#mermaid-1747663795784 .commit2{stroke:hsl(80, 100%, 46.2745098039%);fill:hsl(80, 100%, 46.2745098039%);}#mermaid-1747663795784 .commit-highlight2{stroke:rgb(48.8333333334, 0, 146.5000000001);fill:rgb(48.8333333334, 0, 146.5000000001);}#mermaid-1747663795784 .label2{fill:hsl(80, 100%, 46.2745098039%);}#mermaid-1747663795784 .arrow2{stroke:hsl(80, 100%, 46.2745098039%);}#mermaid-1747663795784 .branch-label3{fill:#ffffff;}#mermaid-1747663795784 .commit3{stroke:hsl(210, 100%, 46.2745098039%);fill:hsl(210, 100%, 46.2745098039%);}#mermaid-1747663795784 .commit-highlight3{stroke:rgb(146.5000000001, 73.2500000001, 0);fill:rgb(146.5000000001, 73.2500000001, 0);}#mermaid-1747663795784 .label3{fill:hsl(210, 100%, 46.2745098039%);}#mermaid-1747663795784 .arrow3{stroke:hsl(210, 100%, 46.2745098039%);}#mermaid-1747663795784 .branch-label4{fill:black;}#mermaid-1747663795784 .commit4{stroke:hsl(180, 100%, 46.2745098039%);fill:hsl(180, 100%, 46.2745098039%);}#mermaid-1747663795784 .commit-highlight4{stroke:rgb(146.5000000001, 0, 0);fill:rgb(146.5000000001, 0, 0);}#mermaid-1747663795784 .label4{fill:hsl(180, 100%, 46.2745098039%);}#mermaid-1747663795784 .arrow4{stroke:hsl(180, 100%, 46.2745098039%);}#mermaid-1747663795784 .branch-label5{fill:black;}#mermaid-1747663795784 .commit5{stroke:hsl(150, 100%, 46.2745098039%);fill:hsl(150, 100%, 46.2745098039%);}#mermaid-1747663795784 .commit-highlight5{stroke:rgb(146.5000000001, 0, 73.2500000001);fill:rgb(146.5000000001, 0, 73.2500000001);}#mermaid-1747663795784 .label5{fill:hsl(150, 100%, 46.2745098039%);}#mermaid-1747663795784 .arrow5{stroke:hsl(150, 100%, 46.2745098039%);}#mermaid-1747663795784 .branch-label6{fill:black;}#mermaid-1747663795784 .commit6{stroke:hsl(300, 100%, 46.2745098039%);fill:hsl(300, 100%, 46.2745098039%);}#mermaid-1747663795784 .commit-highlight6{stroke:rgb(0, 146.5000000001, 0);fill:rgb(0, 146.5000000001, 0);}#mermaid-1747663795784 .label6{fill:hsl(300, 100%, 46.2745098039%);}#mermaid-1747663795784 .arrow6{stroke:hsl(300, 100%, 46.2745098039%);}#mermaid-1747663795784 .branch-label7{fill:black;}#mermaid-1747663795784 .commit7{stroke:hsl(0, 100%, 46.2745098039%);fill:hsl(0, 100%, 46.2745098039%);}#mermaid-1747663795784 .commit-highlight7{stroke:rgb(0, 146.5000000001, 146.5000000001);fill:rgb(0, 146.5000000001, 146.5000000001);}#mermaid-1747663795784 .label7{fill:hsl(0, 100%, 46.2745098039%);}#mermaid-1747663795784 .arrow7{stroke:hsl(0, 100%, 46.2745098039%);}#mermaid-1747663795784 .branch{stroke-width:1;stroke:#333333;stroke-dasharray:2;}#mermaid-1747663795784 .commit-label{font-size:10px;fill:#000021;}#mermaid-1747663795784 .commit-label-bkg{font-size:10px;fill:#ffffde;opacity:0.5;}#mermaid-1747663795784 .tag-label{font-size:10px;fill:#131300;}#mermaid-1747663795784 .tag-label-bkg{fill:#ECECFF;stroke:hsl(240, 60%, 86.2745098039%);}#mermaid-1747663795784 .tag-hole{fill:#333;}#mermaid-1747663795784 .commit-merge{stroke:#ECECFF;fill:#ECECFF;}#mermaid-1747663795784 .commit-reverse{stroke:#ECECFF;fill:#ECECFF;stroke-width:3;}#mermaid-1747663795784 .commit-highlight-inner{stroke:#ECECFF;fill:#ECECFF;}#mermaid-1747663795784 .arrow{stroke-width:8;stroke-linecap:round;fill:none;}#mermaid-1747663795784 .gitTitleText{text-anchor:middle;font-size:18px;fill:#333;}#mermaid-1747663795784 :root{--mermaid-font-family:"trebuchet ms",verdana,arial,sans-serif;}</style><g/><g class="commit-bullets"/><g class="commit-labels"/><g><line class="branch branch0" y2="0" x2="500" y1="0" x1="0"/><rect transform="translate(-19, -9.25)" height="22.5" width="52.9921875" y="-1.25" x="-68.9921875" ry="4" rx="4" class="branchLabelBkg label0"/><g class="branchLabel"><g transform="translate(-78.9921875, -10.25)" class="label branch-label0"><text><tspan class="row" x="0" dy="1em" xml:space="preserve">main</tspan></text></g></g><line class="branch branch1" y2="90" x2="500" y1="90" x1="0"/><rect transform="translate(-19, 80.75)" height="22.5" width="122.53125" y="-1.25" x="-138.53125" ry="4" rx="4" class="branchLabelBkg label1"/><g class="branchLabel"><g transform="translate(-148.53125, 79.75)" class="label branch-label1"><text><tspan class="row" x="0" dy="1em" xml:space="preserve">feat/add-login</tspan></text></g></g><line class="branch branch2" y2="180" x2="500" y1="180" x1="0"/><rect transform="translate(-19, 170.75)" height="22.5" width="152.9296875" y="-1.25" x="-168.9296875" ry="4" rx="4" class="branchLabelBkg label2"/><g class="branchLabel"><g transform="translate(-178.9296875, 169.75)" class="label branch-label2"><text><tspan class="row" x="0" dy="1em" xml:space="preserve">bug/fix-login-error</tspan></text></g></g><line class="branch branch3" y2="270" x2="500" y1="270" x1="0"/><rect transform="translate(-19, 260.75)" height="22.5" width="115.3125" y="-1.25" x="-131.3125" ry="4" rx="4" class="branchLabelBkg label3"/><g class="branchLabel"><g transform="translate(-141.3125, 259.75)" class="label branch-label3"><text><tspan class="row" x="0" dy="1em" xml:space="preserve">release/1.0.0</tspan></text></g></g><line class="branch branch4" y2="360" x2="500" y1="360" x1="0"/><rect transform="translate(-19, 350.75)" height="22.5" width="155.2265625" y="-1.25" x="-171.2265625" ry="4" rx="4" class="branchLabelBkg label4"/><g class="branchLabel"><g transform="translate(-181.2265625, 349.75)" class="label branch-label4"><text><tspan class="row" x="0" dy="1em" xml:space="preserve">hotfix/fix-payment</tspan></text></g></g></g><g class="commit-arrows"><path class="arrow arrow1" d="M 10 0 L 10 70 A 20 20, 0, 0, 0, 30 90 L 60 90"/><path class="arrow arrow0" d="M 10 0 L 110 0"/><path class="arrow arrow1" d="M 60 90 L 90 90 A 20 20, 0, 0, 0, 110 70 L 110 0"/><path class="arrow arrow2" d="M 110 0 L 110 160 A 20 20, 0, 0, 0, 130 180 L 160 180"/><path class="arrow arrow0" d="M 110 0 L 210 0"/><path class="arrow arrow2" d="M 160 180 L 190 180 A 20 20, 0, 0, 0, 210 160 L 210 0"/><path class="arrow arrow3" d="M 210 0 L 210 250 A 20 20, 0, 0, 0, 230 270 L 260 270"/><path class="arrow arrow0" d="M 210 0 L 310 0"/><path class="arrow arrow3" d="M 260 270 L 290 270 A 20 20, 0, 0, 0, 310 250 L 310 0"/><path class="arrow arrow4" d="M 310 0 L 310 340 A 20 20, 0, 0, 0, 330 360 L 360 360"/><path class="arrow arrow0" d="M 310 0 L 410 0"/><path class="arrow arrow4" d="M 360 360 L 390 360 A 20 20, 0, 0, 0, 410 340 L 410 0"/><path class="arrow arrow3" d="M 260 270 L 460 270"/><path class="arrow arrow4" d="M 360 360 L 440 360 A 20 20, 0, 0, 0, 460 340 L 460 270"/></g><g class="commit-bullets"><circle class="commit Initial commit0" r="10" cy="0" cx="10"/><circle class="commit Add Login Feature commit1" r="10" cy="90" cx="60"/><circle class="commit Merge Feature commit0" r="9" cy="0" cx="110"/><circle class="commit commit-merge Merge Feature commit0" r="6" cy="0" cx="110"/><circle class="commit Fix Login Error commit2" r="10" cy="180" cx="160"/><circle class="commit Merge Bugfix commit0" r="9" cy="0" cx="210"/><circle class="commit commit-merge Merge Bugfix commit0" r="6" cy="0" cx="210"/><circle class="commit Prepare Release commit3" r="10" cy="270" cx="260"/><circle class="commit Release to Main commit0" r="9" cy="0" cx="310"/><circle class="commit commit-merge Release to Main commit0" r="6" cy="0" cx="310"/><circle class="commit Fix Payment Bug commit4" r="10" cy="360" cx="360"/><circle class="commit Merge Hotfix commit0" r="9" cy="0" cx="410"/><circle class="commit commit-merge Merge Hotfix commit0" r="6" cy="0" cx="410"/><circle class="commit Hotfix to Release commit3" r="9" cy="270" cx="460"/><circle class="commit commit-merge Hotfix to Release commit3" r="6" cy="270" cx="460"/></g><g class="commit-labels"><g transform="translate(-21.2275, 18.8825) rotate(-45, 0, 0)"><rect height="15.5" width="30.125" y="13.5" x="-5.0625" class="commit-label-bkg"/><text class="commit-label" y="25" x="-3.0625">Initial</text></g><polygon points="-15.98828125,-17.2  &#10;      -15.98828125,-21.2&#10;      -7.98828125,-26.95&#10;      27.98828125,-26.95&#10;      27.98828125,-11.45&#10;      -7.98828125,-11.45" class="tag-label-bkg"/><circle class="tag-hole" r="1.5" cx="-11.98828125" cy="-19.2"/><text x="-3.98828125" class="tag-label" y="-16">v0.1.0</text><g transform="translate(-42.29375, 37.73125) rotate(-45, 50, 90)"><rect height="15.55078125" width="85.5625" y="103.5" x="17.21875" class="commit-label-bkg"/><text class="commit-label" y="115" x="19.21875">Add Login Feature</text></g><g transform="translate(-35.86640625, 31.98046875) rotate(-45, 100, 0)"><rect height="15.55078125" width="68.6484375" y="13.5" x="75.67578125" class="commit-label-bkg"/><text class="commit-label" y="25" x="77.67578125">Merge Feature</text></g><g transform="translate(-36.10984375, 32.198281249999994) rotate(-45, 150, 180)"><rect height="15.55078125" width="69.2890625" y="193.5" x="125.35546875" class="commit-label-bkg"/><text class="commit-label" y="205" x="127.35546875">Fix Login Error</text></g><g transform="translate(-33.197500000000005, 29.5925) rotate(-45, 200, 0)"><rect height="15.55078125" width="61.625" y="13.5" x="179.1875" class="commit-label-bkg"/><text class="commit-label" y="25" x="181.1875">Merge Bugfix</text></g><polygon points="184.01171875,-17.2  &#10;      184.01171875,-21.2&#10;      192.01171875,-26.95&#10;      227.98828125,-26.95&#10;      227.98828125,-11.45&#10;      192.01171875,-11.45" class="tag-label-bkg"/><circle class="tag-hole" r="1.5" cx="188.01171875" cy="-19.2"/><text x="196.01171875" class="tag-label" y="-16">v1.0.0</text><g transform="translate(-38.529375, 34.363125) rotate(-45, 250, 270)"><rect height="15.55078125" width="75.65625" y="283.5" x="222.171875" class="commit-label-bkg"/><text class="commit-label" y="295" x="224.171875">Prepare Release</text></g><g transform="translate(-37.920781250000005, 33.818593750000005) rotate(-45, 300, 0)"><rect height="15.5" width="74.0546875" y="13.5" x="272.97265625" class="commit-label-bkg"/><text class="commit-label" y="25" x="274.97265625">Release to Main</text></g><polygon points="265.92578125,-17.2  &#10;      265.92578125,-21.2&#10;      273.92578125,-26.95&#10;      346.07421875,-26.95&#10;      346.07421875,-11.45&#10;      273.92578125,-11.45" class="tag-label-bkg"/><circle class="tag-hole" r="1.5" cx="269.92578125" cy="-19.2"/><text x="277.92578125" class="tag-label" y="-16">v1.0.0-release</text><g transform="translate(-39.32796875, 35.077656250000004) rotate(-45, 350, 360)"><rect height="15.55078125" width="77.7578125" y="373.5" x="321.12109375" class="commit-label-bkg"/><text class="commit-label" y="385" x="323.12109375">Fix Payment Bug</text></g><g transform="translate(-33.096562500000005, 29.5021875) rotate(-45, 400, 0)"><rect height="15.55078125" width="61.359375" y="13.5" x="379.3203125" class="commit-label-bkg"/><text class="commit-label" y="25" x="381.3203125">Merge Hotfix</text></g><polygon points="369,-17.2  &#10;      369,-21.2&#10;      377,-26.95&#10;      443,-26.95&#10;      443,-11.45&#10;      377,-11.45" class="tag-label-bkg"/><circle class="tag-hole" r="1.5" cx="373" cy="-19.2"/><text x="381" class="tag-label" y="-16">v1.0.1-hotfix</text><g transform="translate(-40.49171875, 36.118906249999995) rotate(-45, 450, 270)"><rect height="15.5" width="80.8203125" y="283.5" x="419.58984375" class="commit-label-bkg"/><text class="commit-label" y="295" x="421.58984375">Hotfix to Release</text></g></g></svg>