<svg width="1920" height="1080" viewBox="0 0 1920 1080" fill="none" xmlns="http://www.w3.org/2000/svg">
<path d="M792.698 1017.54V1022H790.879V1009.32H793.138L795.502 1016.83H795.634L797.98 1009.32H800.248V1022H798.429V1017.54L798.657 1012.44H798.499L796.319 1019.02H794.808L792.628 1012.44H792.47L792.698 1017.54ZM810.267 1022L809.353 1018.67H805.327L804.405 1022H802.278L806.189 1009.32H808.632L812.543 1022H810.267ZM807.305 1011.54L805.802 1016.98H808.887L807.393 1011.54H807.305ZM814.107 1022L817.965 1015.62L814.125 1009.32H816.48L819.275 1014.09H819.372L822.193 1009.32H824.408L820.461 1015.65L824.373 1022H822.079L819.222 1017.34H819.126L816.252 1022H814.107ZM838.372 1018.52H840.402C840.526 1019.74 841.51 1020.46 843.057 1020.46C844.551 1020.46 845.509 1019.71 845.509 1018.55C845.509 1017.59 844.876 1017.04 843.312 1016.67L842.09 1016.38C839.77 1015.83 838.662 1014.66 838.662 1012.8C838.662 1010.52 840.367 1009.06 843.03 1009.06C845.579 1009.06 847.311 1010.5 847.39 1012.7H845.368C845.254 1011.54 844.384 1010.86 843.048 1010.86C841.642 1010.86 840.789 1011.51 840.789 1012.61C840.789 1013.59 841.404 1014.14 842.89 1014.49L844.111 1014.78C846.564 1015.35 847.618 1016.44 847.618 1018.36C847.618 1020.77 845.86 1022.25 843.022 1022.25C840.244 1022.25 838.478 1020.84 838.372 1018.52ZM855.862 1022H853.735V1011.17H850.026V1009.32H859.571V1011.17H855.862V1022ZM870.732 1020.15V1022H862.936V1009.32H870.732V1011.17H865.063V1014.71H870.407V1016.44H865.063V1020.15H870.732ZM874.405 1009.32H878.879C881.463 1009.32 883.124 1010.97 883.124 1013.54C883.124 1016.1 881.428 1017.75 878.791 1017.75H876.532V1022H874.405V1009.32ZM876.532 1011.09V1015.98H878.352C880.065 1015.98 880.971 1015.14 880.971 1013.54C880.971 1011.93 880.065 1011.09 878.352 1011.09H876.532ZM885.76 1018.52H887.79C887.913 1019.74 888.898 1020.46 890.445 1020.46C891.939 1020.46 892.897 1019.71 892.897 1018.55C892.897 1017.59 892.264 1017.04 890.699 1016.67L889.478 1016.38C887.157 1015.83 886.05 1014.66 886.05 1012.8C886.05 1010.52 887.755 1009.06 890.418 1009.06C892.967 1009.06 894.698 1010.5 894.778 1012.7H892.756C892.642 1011.54 891.772 1010.86 890.436 1010.86C889.03 1010.86 888.177 1011.51 888.177 1012.61C888.177 1013.59 888.792 1014.14 890.278 1014.49L891.499 1014.78C893.951 1015.35 895.006 1016.44 895.006 1018.36C895.006 1020.77 893.248 1022.25 890.409 1022.25C887.632 1022.25 885.865 1020.84 885.76 1018.52ZM916.889 1022L915.975 1018.67H911.95L911.027 1022H908.9L912.811 1009.32H915.255L919.166 1022H916.889ZM913.928 1011.54L912.425 1016.98H915.51L914.015 1011.54H913.928ZM930.292 1020.11V1022H922.461V1009.32H924.562V1020.11H930.292ZM942.139 1020.11V1022H934.308V1009.32H936.409V1020.11H942.139ZM954.364 1016.65C954.364 1020.17 952.553 1022.25 949.574 1022.25C946.594 1022.25 944.784 1020.17 944.784 1016.65V1014.67C944.784 1011.15 946.594 1009.06 949.574 1009.06C952.553 1009.06 954.364 1011.15 954.364 1014.67V1016.65ZM949.574 1020.36C951.261 1020.36 952.211 1019.07 952.211 1016.63V1014.69C952.211 1012.24 951.261 1010.96 949.574 1010.96C947.886 1010.96 946.937 1012.24 946.937 1014.69V1016.63C946.937 1019.07 947.886 1020.36 949.574 1020.36ZM961.482 1014.36H961.359L959.812 1022H957.914L955.857 1009.32H957.809L958.424 1013.98L959.021 1019.11H959.144L960.559 1012.22H962.282L963.697 1019.11H963.82L964.418 1013.98L965.033 1009.32H966.984L964.928 1022H963.029L961.482 1014.36ZM977.355 1020.15V1022H969.559V1009.32H977.355V1011.17H971.686V1014.71H977.029V1016.44H971.686V1020.15H977.355ZM980.747 1009.32H984.614C988.182 1009.32 990.019 1011.45 990.019 1015.59C990.019 1019.84 988.2 1022 984.614 1022H980.747V1009.32ZM982.874 1011.17V1020.15H984.35C986.741 1020.15 987.848 1018.73 987.848 1015.63C987.848 1012.61 986.723 1011.17 984.35 1011.17H982.874Z" fill="#080808"/>
<path d="M173.52 616.016V613.985C174.741 613.862 175.462 612.878 175.462 611.331C175.462 609.837 174.715 608.879 173.546 608.879C172.588 608.879 172.043 609.512 171.674 611.076L171.384 612.298C170.83 614.618 169.661 615.726 167.798 615.726C165.521 615.726 164.062 614.021 164.062 611.357C164.062 608.809 165.504 607.077 167.701 606.998V609.02C166.541 609.134 165.855 610.004 165.855 611.34C165.855 612.746 166.515 613.599 167.613 613.599C168.589 613.599 169.143 612.983 169.485 611.498L169.775 610.276C170.347 607.824 171.437 606.77 173.361 606.77C175.77 606.77 177.255 608.527 177.255 611.366C177.255 614.144 175.84 615.91 173.52 616.016ZM175.339 599.59C175.339 597.999 174.284 597.093 172.421 597.093H164.317V594.975H172.544C175.506 594.975 177.255 596.689 177.255 599.59C177.255 602.49 175.506 604.204 172.544 604.204H164.317V602.086H172.421C174.284 602.086 175.339 601.18 175.339 599.59ZM175.339 587.461C175.339 585.994 174.39 585.08 172.843 585.053V582.9C175.541 582.9 177.255 584.684 177.255 587.453C177.255 590.529 175.277 592.331 171.885 592.331H169.433C166.04 592.331 164.062 590.529 164.062 587.453C164.062 584.631 165.759 582.935 168.633 582.9V585.053C167.033 585.088 165.979 586.064 165.979 587.488C165.979 589.219 167.165 590.133 169.433 590.133H171.885C174.152 590.133 175.339 589.219 175.339 587.461ZM175.339 575.614C175.339 574.147 174.39 573.233 172.843 573.206V571.053C175.541 571.053 177.255 572.837 177.255 575.606C177.255 578.682 175.277 580.484 171.885 580.484H169.433C166.04 580.484 164.062 578.682 164.062 575.606C164.062 572.784 165.759 571.088 168.633 571.053V573.206C167.033 573.241 165.979 574.217 165.979 575.641C165.979 577.372 167.165 578.286 169.433 578.286H171.885C174.152 578.286 175.339 577.372 175.339 575.614ZM175.146 559.962H177V567.758H164.317V559.962H166.172V565.631H169.705V560.287H171.437V565.631H175.146V559.962ZM173.52 556.781V554.751C174.741 554.628 175.462 553.643 175.462 552.096C175.462 550.602 174.715 549.644 173.546 549.644C172.588 549.644 172.043 550.277 171.674 551.841L171.384 553.063C170.83 555.383 169.661 556.491 167.798 556.491C165.521 556.491 164.062 554.786 164.062 552.123C164.062 549.574 165.504 547.842 167.701 547.763V549.785C166.541 549.899 165.855 550.769 165.855 552.105C165.855 553.511 166.515 554.364 167.613 554.364C168.589 554.364 169.143 553.749 169.485 552.263L169.775 551.042C170.347 548.589 171.437 547.535 173.361 547.535C175.77 547.535 177.255 549.293 177.255 552.131C177.255 554.909 175.84 556.675 173.52 556.781ZM173.52 544.934V542.904C174.741 542.781 175.462 541.796 175.462 540.249C175.462 538.755 174.715 537.797 173.546 537.797C172.588 537.797 172.043 538.43 171.674 539.994L171.384 541.216C170.83 543.536 169.661 544.644 167.798 544.644C165.521 544.644 164.062 542.939 164.062 540.276C164.062 537.727 165.504 535.995 167.701 535.916V537.938C166.541 538.052 165.855 538.922 165.855 540.258C165.855 541.664 166.515 542.517 167.613 542.517C168.589 542.517 169.143 541.902 169.485 540.416L169.775 539.195C170.347 536.743 171.437 535.688 173.361 535.688C175.77 535.688 177.255 537.446 177.255 540.284C177.255 543.062 175.84 544.828 173.52 544.934ZM172.175 516.476V518.718H177V520.836H164.317V516.371C164.317 513.699 165.82 512.055 168.264 512.055C169.916 512.055 171.287 512.952 171.797 514.358L177 511.801V514.191L172.175 516.476ZM166.084 518.718H170.505V516.661C170.505 515.114 169.688 514.218 168.29 514.218C166.893 514.218 166.084 515.096 166.084 516.617V518.718ZM177 501.957L173.669 502.872V506.897L177 507.82V509.947L164.317 506.036V503.592L177 499.681V501.957ZM166.541 504.919L171.981 506.422V503.337L166.541 504.832V504.919ZM177 491.904V494.03H166.172V497.739H164.317V488.195H166.172V491.904H177ZM175.146 477.033H177V484.829H164.317V477.033H166.172V482.702H169.705V477.358H171.437V482.702H175.146V477.033ZM170.663 459.694C167.508 459.694 164.766 458.736 162.735 456.925V454.833C165.486 456.705 167.771 457.47 170.663 457.47C173.546 457.47 175.822 456.705 178.573 454.833V456.925C176.543 458.736 173.801 459.694 170.663 459.694ZM170.452 448.567C170.452 450.106 169.345 451.064 167.561 451.064H166.91C165.196 451.064 164.089 450.088 164.089 448.567C164.089 447.047 165.196 446.071 166.91 446.071H167.561C169.345 446.071 170.452 447.021 170.452 448.567ZM164.317 440.016H165.697L177 451.143H175.62L164.317 440.016ZM169.107 448.567C169.107 447.838 168.554 447.434 167.517 447.434H167.007C165.979 447.434 165.416 447.838 165.416 448.567C165.416 449.297 165.979 449.701 167.007 449.701H167.517C168.554 449.701 169.107 449.297 169.107 448.567ZM177.237 442.591C177.237 444.138 176.139 445.087 174.354 445.087H173.704C171.99 445.087 170.874 444.111 170.874 442.591C170.874 441.07 171.99 440.095 173.704 440.095H174.354C176.139 440.095 177.237 441.053 177.237 442.591ZM175.901 442.591C175.901 441.861 175.339 441.457 174.311 441.457H173.801C172.772 441.457 172.21 441.861 172.21 442.591C172.21 443.32 172.772 443.725 173.801 443.725H174.311C175.339 443.725 175.901 443.32 175.901 442.591ZM170.663 431.465C173.801 431.465 176.543 432.423 178.573 434.233V436.325C175.822 434.453 173.546 433.688 170.663 433.688C167.771 433.688 165.486 434.453 162.735 436.325V434.233C164.766 432.423 167.508 431.465 170.663 431.465Z" fill="#080808"/>
<path d="M328.932 93.36C321.876 93.36 316.548 88.104 316.548 80.4C316.548 72.66 321.876 67.44 328.932 67.44C335.988 67.44 341.316 72.66 341.316 80.4C341.316 88.104 335.988 93.36 328.932 93.36ZM329.112 88.968C333.36 88.968 336.384 85.692 336.384 80.4C336.384 75.072 333.36 71.832 329.112 71.832H328.752C324.504 71.832 321.48 75.072 321.48 80.4C321.48 85.692 324.504 88.968 328.752 88.968H329.112ZM353.031 93.36C346.335 93.36 342.879 90.084 342.735 84.576H347.559C347.631 87.312 349.395 89.04 352.959 89.04H353.283C356.055 89.04 357.855 87.852 357.855 85.98C357.855 84.504 356.991 83.46 354.435 82.956L350.115 82.128C345.651 81.264 343.527 78.852 343.527 75C343.527 70.968 347.055 67.44 352.995 67.44C359.007 67.44 362.607 70.824 362.715 75.684H357.855C357.567 73.2 355.767 71.76 352.887 71.76H352.563C350.079 71.76 348.351 73.128 348.351 74.856C348.351 76.476 349.323 77.196 351.519 77.592L355.731 78.348C360.267 79.176 362.859 81.732 362.859 85.8C362.859 90.264 359.115 93.36 353.031 93.36ZM369.834 93L363.642 67.8H368.646L373.146 87.78L377.106 67.8H383.046L387.006 87.78L391.362 67.8H396.402L390.174 93H383.874L380.022 74.64L376.134 93H369.834ZM404.865 93.396C399.573 93.396 395.685 89.328 395.685 83.964C395.685 78.636 399.573 74.604 404.865 74.604C410.193 74.604 414.045 78.636 414.045 83.964C414.045 89.328 410.193 93.396 404.865 93.396ZM404.937 89.508C407.565 89.508 409.329 87.348 409.329 83.964C409.329 80.616 407.565 78.492 404.937 78.492H404.757C402.201 78.492 400.365 80.616 400.365 83.964C400.365 87.348 402.201 89.508 404.757 89.508H404.937ZM416.418 93V75H421.062V78.348C421.818 76.224 423.762 74.784 426.39 74.784H427.182V79.104H425.886C422.79 79.104 421.098 81.048 421.098 84.468V93H416.418ZM429.041 93V67.8H433.721V93H429.041ZM444.219 93.36C439.539 93.36 436.083 89.58 436.083 84C436.083 78.384 439.611 74.568 444.363 74.568C446.883 74.568 448.791 75.792 449.655 77.088V67.8H454.335V93H449.655V90.732C448.863 92.1 446.847 93.36 444.219 93.36ZM445.299 89.508C447.747 89.508 449.691 87.348 449.691 83.964C449.691 80.616 447.747 78.42 445.299 78.42H445.119C442.599 78.42 440.763 80.616 440.763 83.964C440.763 87.348 442.599 89.508 445.119 89.508H445.299Z" fill="#080808"/>
<path d="M1498 197H1528" stroke="#3E4AF5" stroke-width="3"/>
<path d="M1498 223H1528" stroke="#CE55D3" stroke-width="3"/>
<circle cx="1513" cy="223" r="6.55707" fill="#F5F5F5" stroke="#CE55D3" stroke-width="2.88586"/>
<path d="M1549.35 198.647C1549.35 202.172 1547.54 204.255 1544.56 204.255C1541.58 204.255 1539.77 202.172 1539.77 198.647V196.67C1539.77 193.146 1541.58 191.062 1544.56 191.062C1547.54 191.062 1549.35 193.146 1549.35 196.67V198.647ZM1544.56 202.356C1546.25 202.356 1547.2 201.073 1547.2 198.63V196.688C1547.2 194.244 1546.25 192.961 1544.56 192.961C1542.88 192.961 1541.93 194.244 1541.93 196.688V198.63C1541.93 201.073 1542.88 202.356 1544.56 202.356ZM1552.32 191.317H1556.8C1559.38 191.317 1561.04 192.97 1561.04 195.545C1561.04 198.103 1559.35 199.755 1556.71 199.755H1554.45V204H1552.32V191.317ZM1554.45 193.093V197.979H1556.27C1557.98 197.979 1558.89 197.145 1558.89 195.536C1558.89 193.928 1557.98 193.093 1556.27 193.093H1554.45ZM1572.34 202.146V204H1564.55V191.317H1572.34V193.172H1566.68V196.705H1572.02V198.437H1566.68V202.146H1572.34ZM1577.61 204H1575.74V191.317H1577.68L1582.46 200.353H1582.6V191.317H1584.46V204H1582.54L1577.75 194.93H1577.61V204ZM1594.81 204L1593.89 200.669H1589.87L1588.95 204H1586.82L1590.73 191.317H1593.17L1597.08 204H1594.81ZM1591.85 193.541L1590.34 198.981H1593.43L1591.93 193.541H1591.85ZM1607.46 204H1600.13V202.172H1602.73V193.146H1600.13V191.317H1607.46V193.146H1604.86V202.172H1607.46V204ZM1627.77 202.339C1629.24 202.339 1630.16 201.39 1630.18 199.843H1632.33C1632.33 202.541 1630.55 204.255 1627.78 204.255C1624.71 204.255 1622.9 202.277 1622.9 198.885V196.433C1622.9 193.04 1624.71 191.062 1627.78 191.062C1630.6 191.062 1632.3 192.759 1632.33 195.633H1630.18C1630.15 194.033 1629.17 192.979 1627.75 192.979C1626.02 192.979 1625.1 194.165 1625.1 196.433V198.885C1625.1 201.152 1626.02 202.339 1627.77 202.339ZM1639.34 202.339C1640.93 202.339 1641.84 201.284 1641.84 199.421V191.317H1643.95V199.544C1643.95 202.506 1642.24 204.255 1639.34 204.255C1636.44 204.255 1634.72 202.506 1634.72 199.544V191.317H1636.84V199.421C1636.84 201.284 1637.75 202.339 1639.34 202.339ZM1654.04 204L1653.13 200.669H1649.1L1648.18 204H1646.05L1649.96 191.317H1652.41L1656.32 204H1654.04ZM1651.08 193.541L1649.58 198.981H1652.66L1651.17 193.541H1651.08ZM1544.84 227.339C1546.31 227.339 1547.23 226.39 1547.25 224.843H1549.41C1549.41 227.541 1547.62 229.255 1544.85 229.255C1541.78 229.255 1539.98 227.277 1539.98 223.885V221.433C1539.98 218.04 1541.78 216.062 1544.85 216.062C1547.67 216.062 1549.37 217.759 1549.41 220.633H1547.25C1547.22 219.033 1546.24 217.979 1544.82 217.979C1543.09 217.979 1542.17 219.165 1542.17 221.433V223.885C1542.17 226.152 1543.09 227.339 1544.84 227.339ZM1560.82 227.11V229H1552.99V216.317H1555.09V227.11H1560.82ZM1571.11 229L1570.2 225.669H1566.17L1565.25 229H1563.12L1567.04 216.317H1569.48L1573.39 229H1571.11ZM1568.15 218.541L1566.65 223.981H1569.73L1568.24 218.541H1568.15ZM1580.1 227.339C1581.7 227.339 1582.6 226.284 1582.6 224.421V216.317H1584.72V224.544C1584.72 227.506 1583 229.255 1580.1 229.255C1577.2 229.255 1575.49 227.506 1575.49 224.544V216.317H1577.61V224.421C1577.61 226.284 1578.51 227.339 1580.1 227.339ZM1587.58 216.317H1591.45C1595.02 216.317 1596.86 218.453 1596.86 222.593C1596.86 226.838 1595.04 229 1591.45 229H1587.58V216.317ZM1589.71 218.172V227.146H1591.19C1593.58 227.146 1594.68 225.73 1594.68 222.628C1594.68 219.613 1593.56 218.172 1591.19 218.172H1589.71ZM1607.89 227.146V229H1600.09V216.317H1607.89V218.172H1602.22V221.705H1607.56V223.437H1602.22V227.146H1607.89ZM1620.29 224.289H1611V222.443H1620.29V224.289ZM1625.95 223.305V221.67H1627.39C1628.71 221.67 1629.61 220.87 1629.61 219.701C1629.61 218.541 1628.74 217.803 1627.41 217.803C1626.09 217.803 1625.22 218.559 1625.12 219.78H1623.18C1623.3 217.478 1624.93 216.062 1627.48 216.062C1629.94 216.062 1631.63 217.425 1631.63 219.394C1631.63 220.896 1630.8 221.995 1629.42 222.303V222.452C1631.12 222.663 1632.14 223.806 1632.14 225.511C1632.14 227.717 1630.24 229.255 1627.53 229.255C1624.86 229.255 1623.05 227.77 1622.94 225.476H1624.92C1625.02 226.671 1626.02 227.436 1627.47 227.436C1629.03 227.436 1630.01 226.645 1630.01 225.396C1630.01 224.122 1629 223.305 1627.43 223.305H1625.95ZM1643.99 224.289H1634.69V222.443H1643.99V224.289ZM1651.1 229.255C1648.57 229.255 1646.78 227.734 1646.69 225.493H1648.74C1648.88 226.636 1649.87 227.418 1651.17 227.418C1652.64 227.418 1653.62 226.398 1653.62 224.878C1653.62 223.349 1652.63 222.32 1651.17 222.32C1650.17 222.32 1649.38 222.751 1648.9 223.577H1646.86L1647.48 216.317H1654.9V218.128H1649.16L1648.86 221.819H1649.01C1649.58 221.046 1650.52 220.624 1651.68 220.624C1654.02 220.624 1655.65 222.347 1655.65 224.825C1655.65 227.479 1653.82 229.255 1651.1 229.255ZM1667.68 224.289H1658.38V222.443H1667.68V224.289ZM1670.3 225.52H1672.33C1672.45 226.741 1673.44 227.462 1674.99 227.462C1676.48 227.462 1677.44 226.715 1677.44 225.546C1677.44 224.588 1676.8 224.043 1675.24 223.674L1674.02 223.384C1671.7 222.83 1670.59 221.661 1670.59 219.798C1670.59 217.521 1672.3 216.062 1674.96 216.062C1677.51 216.062 1679.24 217.504 1679.32 219.701H1677.3C1677.18 218.541 1676.31 217.855 1674.98 217.855C1673.57 217.855 1672.72 218.515 1672.72 219.613C1672.72 220.589 1673.33 221.143 1674.82 221.485L1676.04 221.775C1678.49 222.347 1679.55 223.437 1679.55 225.361C1679.55 227.77 1677.79 229.255 1674.95 229.255C1672.17 229.255 1670.41 227.84 1670.3 225.52ZM1691.52 223.647C1691.52 227.172 1689.71 229.255 1686.73 229.255C1683.75 229.255 1681.94 227.172 1681.94 223.647V221.67C1681.94 218.146 1683.75 216.062 1686.73 216.062C1689.71 216.062 1691.52 218.146 1691.52 221.67V223.647ZM1686.73 227.356C1688.41 227.356 1689.36 226.073 1689.36 223.63V221.688C1689.36 219.244 1688.41 217.961 1686.73 217.961C1685.04 217.961 1684.09 219.244 1684.09 221.688V223.63C1684.09 226.073 1685.04 227.356 1686.73 227.356ZM1696.08 229H1694.21V216.317H1696.15L1700.93 225.353H1701.07V216.317H1702.93V229H1701.01L1696.22 219.93H1696.08V229ZM1707.92 229H1706.06V216.317H1708L1712.78 225.353H1712.92V216.317H1714.78V229H1712.86L1708.07 219.93H1707.92V229ZM1726.35 227.146V229H1718.56V216.317H1726.35V218.172H1720.69V221.705H1726.03V223.437H1720.69V227.146H1726.35ZM1735.18 229H1733.05V218.172H1729.34V216.317H1738.89V218.172H1735.18V229ZM1750.61 224.289H1741.31V222.443H1750.61V224.289ZM1753.46 220.035C1753.46 217.688 1755.22 216.062 1757.75 216.062C1760.25 216.062 1761.95 217.53 1761.95 219.692C1761.95 221.046 1761.27 222.18 1759.18 224.298L1756.5 227.031V227.189H1762.15V229H1753.57V227.532L1757.76 223.164C1759.44 221.397 1759.87 220.729 1759.87 219.815C1759.87 218.603 1759 217.812 1757.69 217.812C1756.34 217.812 1755.45 218.699 1755.45 220.026V220.088H1753.46V220.035ZM1769.66 229.272C1766.73 229.272 1765.09 226.899 1765.09 222.654C1765.09 218.418 1766.73 216.045 1769.66 216.045C1772.59 216.045 1774.23 218.418 1774.23 222.654C1774.23 226.899 1772.59 229.272 1769.66 229.272ZM1767.17 222.654C1767.17 222.918 1767.18 223.173 1767.19 223.41L1771.86 219.982C1771.48 218.559 1770.74 217.82 1769.66 217.82C1768.04 217.82 1767.17 219.508 1767.17 222.654ZM1769.66 227.497C1771.28 227.497 1772.15 225.81 1772.15 222.654C1772.15 222.399 1772.14 222.145 1772.13 221.907L1767.47 225.344C1767.85 226.759 1768.58 227.497 1769.66 227.497ZM1777.15 220.035C1777.15 217.688 1778.92 216.062 1781.44 216.062C1783.95 216.062 1785.64 217.53 1785.64 219.692C1785.64 221.046 1784.97 222.18 1782.87 224.298L1780.19 227.031V227.189H1785.84V229H1777.27V227.532L1781.46 223.164C1783.14 221.397 1783.57 220.729 1783.57 219.815C1783.57 218.603 1782.7 217.812 1781.38 217.812C1780.03 217.812 1779.15 218.699 1779.15 220.026V220.088H1777.15V220.035ZM1794.54 229V226.486H1788.83V224.79L1792.87 216.317H1795.02L1791.08 224.588V224.729H1794.6V221.354H1796.5V224.746H1798.31V226.486H1796.51V229H1794.54ZM1810.07 229H1801.07V227.216H1804.61V218.497H1804.46L1801.05 220.738V218.673L1804.62 216.317H1806.69V227.216H1810.07V229ZM1817.05 229.272C1814.12 229.272 1812.47 226.899 1812.47 222.654C1812.47 218.418 1814.12 216.045 1817.05 216.045C1819.98 216.045 1821.62 218.418 1821.62 222.654C1821.62 226.899 1819.98 229.272 1817.05 229.272ZM1814.56 222.654C1814.56 222.918 1814.56 223.173 1814.57 223.41L1819.25 219.982C1818.87 218.559 1818.12 217.82 1817.05 217.82C1815.43 217.82 1814.56 219.508 1814.56 222.654ZM1817.05 227.497C1818.67 227.497 1819.54 225.81 1819.54 222.654C1819.54 222.399 1819.53 222.145 1819.52 221.907L1814.85 225.344C1815.23 226.759 1815.97 227.497 1817.05 227.497ZM1824.54 220.035C1824.54 217.688 1826.31 216.062 1828.83 216.062C1831.33 216.062 1833.03 217.53 1833.03 219.692C1833.03 221.046 1832.35 222.18 1830.26 224.298L1827.58 227.031V227.189H1833.23V229H1824.65V227.532L1828.85 223.164C1830.53 221.397 1830.96 220.729 1830.96 219.815C1830.96 218.603 1830.09 217.812 1828.77 217.812C1827.42 217.812 1826.53 218.699 1826.53 220.026V220.088H1824.54V220.035ZM1836.39 220.035C1836.39 217.688 1838.15 216.062 1840.68 216.062C1843.18 216.062 1844.88 217.53 1844.88 219.692C1844.88 221.046 1844.2 222.18 1842.11 224.298L1839.43 227.031V227.189H1845.08V229H1836.5V227.532L1840.69 223.164C1842.37 221.397 1842.8 220.729 1842.8 219.815C1842.8 218.603 1841.93 217.812 1840.61 217.812C1839.27 217.812 1838.38 218.699 1838.38 220.026V220.088H1836.39V220.035Z" fill="#080808"/>
<path opacity="0.8" d="M672 935L672 550" stroke="#080808" stroke-dasharray="4 4"/>
<path opacity="0.8" d="M672.5 550H476" stroke="#080808" stroke-dasharray="4 4"/>
<path opacity="0.8" d="M1016 300H476" stroke="#080808" stroke-dasharray="4 4"/>
<path opacity="0.8" d="M1410 193L476 193" stroke="#080808" stroke-dasharray="4 4"/>
<path opacity="0.8" d="M1211 224L476 224" stroke="#080808" stroke-dasharray="4 4"/>
<path opacity="0.8" d="M1016 935L1016 297" stroke="#080808" stroke-dasharray="4 4"/>
<path opacity="0.8" d="M1410 935L1410 191" stroke="#080808" stroke-dasharray="4 4"/>
<path opacity="0.8" d="M1211 935L1211 224" stroke="#080808" stroke-dasharray="4 4"/>
<rect width="1182" height="2" transform="matrix(1 0 0 -1 289 936)" fill="#080808"/>
<path d="M275.009 941.272C272.073 941.272 270.43 938.899 270.43 934.654C270.43 930.418 272.073 928.045 275.009 928.045C277.936 928.045 279.579 930.418 279.579 934.654C279.579 938.899 277.936 941.272 275.009 941.272ZM272.513 934.654C272.513 934.918 272.521 935.173 272.53 935.41L277.206 931.982C276.828 930.559 276.081 929.82 275.009 929.82C273.383 929.82 272.513 931.508 272.513 934.654ZM275.009 939.497C276.626 939.497 277.496 937.81 277.496 934.654C277.496 934.399 277.487 934.145 277.479 933.907L272.812 937.344C273.189 938.759 273.928 939.497 275.009 939.497Z" fill="#080808"/>
<path d="M415.798 556H406.798V554.216H410.34V545.497H410.19L406.78 547.738V545.673L410.349 543.317H412.423V554.216H415.798V556ZM417.45 547.483C417.45 544.943 419.401 543.054 422.047 543.054C424.771 543.054 426.679 544.908 426.679 547.58C426.679 549.065 426.151 550.454 424.877 552.265C424.587 552.722 422.381 555.71 422.144 555.991H419.735L423.031 551.553C423.348 551.113 423.462 550.946 423.55 550.762L423.392 550.718C422.961 551.219 422.144 551.535 421.353 551.535C419.094 551.535 417.45 549.83 417.45 547.483ZM422.064 544.864C420.623 544.864 419.542 545.954 419.542 547.404C419.542 548.854 420.623 549.944 422.064 549.944C423.515 549.944 424.596 548.854 424.596 547.404C424.596 545.954 423.515 544.864 422.064 544.864ZM433.183 556.123C432.198 556.123 431.39 555.288 431.39 554.286C431.39 553.284 432.198 552.458 433.183 552.458C434.167 552.458 434.976 553.284 434.976 554.286C434.976 555.288 434.167 556.123 433.183 556.123ZM441.04 556L446.63 545.242V545.11H439.977V543.309H448.783V545.137L443.281 556H441.04ZM452.448 549.452C450.91 549.452 449.952 548.345 449.952 546.561V545.91C449.952 544.196 450.928 543.089 452.448 543.089C453.969 543.089 454.944 544.196 454.944 545.91V546.561C454.944 548.345 453.995 549.452 452.448 549.452ZM461 543.317V544.697L449.873 556V554.62L461 543.317ZM452.448 548.107C453.178 548.107 453.582 547.554 453.582 546.517V546.007C453.582 544.979 453.178 544.416 452.448 544.416C451.719 544.416 451.314 544.979 451.314 546.007V546.517C451.314 547.554 451.719 548.107 452.448 548.107ZM458.425 556.237C456.878 556.237 455.929 555.139 455.929 553.354V552.704C455.929 550.99 456.904 549.874 458.425 549.874C459.945 549.874 460.921 550.99 460.921 552.704V553.354C460.921 555.139 459.963 556.237 458.425 556.237ZM458.425 554.901C459.154 554.901 459.559 554.339 459.559 553.311V552.801C459.559 551.772 459.154 551.21 458.425 551.21C457.695 551.21 457.291 551.772 457.291 552.801V553.311C457.291 554.339 457.695 554.901 458.425 554.901Z" fill="#3E4AF5"/>
<path d="M409.382 300.305V298.67H410.823C412.15 298.67 413.047 297.87 413.047 296.701C413.047 295.541 412.177 294.803 410.85 294.803C409.522 294.803 408.652 295.559 408.556 296.78H406.613C406.736 294.478 408.371 293.062 410.92 293.062C413.372 293.062 415.068 294.425 415.068 296.394C415.068 297.896 414.233 298.995 412.854 299.303V299.452C414.559 299.663 415.578 300.806 415.578 302.511C415.578 304.717 413.68 306.255 410.964 306.255C408.301 306.255 406.49 304.77 406.376 302.476H408.354C408.459 303.671 409.452 304.436 410.911 304.436C412.467 304.436 413.451 303.645 413.451 302.396C413.451 301.122 412.44 300.305 410.867 300.305H409.382ZM417.705 297.035C417.705 294.688 419.472 293.062 421.994 293.062C424.499 293.062 426.195 294.53 426.195 296.692C426.195 298.046 425.519 299.18 423.427 301.298L420.746 304.031V304.189H426.397V306H417.819V304.532L422.012 300.164C423.69 298.397 424.121 297.729 424.121 296.815C424.121 295.603 423.251 294.812 421.933 294.812C420.588 294.812 419.7 295.699 419.7 297.026V297.088H417.705V297.035ZM433.183 306.123C432.198 306.123 431.39 305.288 431.39 304.286C431.39 303.284 432.198 302.458 433.183 302.458C434.167 302.458 434.976 303.284 434.976 304.286C434.976 305.288 434.167 306.123 433.183 306.123ZM449.003 301.825C449.003 304.374 447.043 306.255 444.397 306.255C441.673 306.255 439.774 304.4 439.774 301.729C439.774 300.217 440.293 298.828 441.541 297.044C441.831 296.604 444.037 293.616 444.274 293.317H446.691L443.396 297.765C443.009 298.292 442.965 298.371 442.877 298.556L443.035 298.591C443.466 298.099 444.301 297.773 445.101 297.773C447.342 297.773 449.003 299.496 449.003 301.825ZM444.38 304.453C445.821 304.453 446.911 303.363 446.911 301.913C446.911 300.463 445.821 299.373 444.38 299.373C442.938 299.373 441.849 300.463 441.849 301.913C441.849 303.363 442.938 304.453 444.38 304.453ZM452.448 299.452C450.91 299.452 449.952 298.345 449.952 296.561V295.91C449.952 294.196 450.928 293.089 452.448 293.089C453.969 293.089 454.944 294.196 454.944 295.91V296.561C454.944 298.345 453.995 299.452 452.448 299.452ZM461 293.317V294.697L449.873 306V304.62L461 293.317ZM452.448 298.107C453.178 298.107 453.582 297.554 453.582 296.517V296.007C453.582 294.979 453.178 294.416 452.448 294.416C451.719 294.416 451.314 294.979 451.314 296.007V296.517C451.314 297.554 451.719 298.107 452.448 298.107ZM458.425 306.237C456.878 306.237 455.929 305.139 455.929 303.354V302.704C455.929 300.99 456.904 299.874 458.425 299.874C459.945 299.874 460.921 300.99 460.921 302.704V303.354C460.921 305.139 459.963 306.237 458.425 306.237ZM458.425 304.901C459.154 304.901 459.559 304.339 459.559 303.311V302.801C459.559 301.772 459.154 301.21 458.425 301.21C457.695 301.21 457.291 301.772 457.291 302.801V303.311C457.291 304.339 457.695 304.901 458.425 304.901Z" fill="#3E4AF5"/>
<path d="M409.382 224.305V222.67H410.823C412.15 222.67 413.047 221.87 413.047 220.701C413.047 219.541 412.177 218.803 410.85 218.803C409.522 218.803 408.652 219.559 408.556 220.78H406.613C406.736 218.478 408.371 217.062 410.92 217.062C413.372 217.062 415.068 218.425 415.068 220.394C415.068 221.896 414.233 222.995 412.854 223.303V223.452C414.559 223.663 415.578 224.806 415.578 226.511C415.578 228.717 413.68 230.255 410.964 230.255C408.301 230.255 406.49 228.77 406.376 226.476H408.354C408.459 227.671 409.452 228.436 410.911 228.436C412.467 228.436 413.451 227.645 413.451 226.396C413.451 225.122 412.44 224.305 410.867 224.305H409.382ZM426.749 225.825C426.749 228.374 424.789 230.255 422.144 230.255C419.419 230.255 417.521 228.4 417.521 225.729C417.521 224.217 418.039 222.828 419.287 221.044C419.577 220.604 421.783 217.616 422.021 217.317H424.438L421.142 221.765C420.755 222.292 420.711 222.371 420.623 222.556L420.781 222.591C421.212 222.099 422.047 221.773 422.847 221.773C425.088 221.773 426.749 223.496 426.749 225.825ZM422.126 228.453C423.567 228.453 424.657 227.363 424.657 225.913C424.657 224.463 423.567 223.373 422.126 223.373C420.685 223.373 419.595 224.463 419.595 225.913C419.595 227.363 420.685 228.453 422.126 228.453ZM433.183 230.123C432.198 230.123 431.39 229.288 431.39 228.286C431.39 227.284 432.198 226.458 433.183 226.458C434.167 226.458 434.976 227.284 434.976 228.286C434.976 229.288 434.167 230.123 433.183 230.123ZM445.505 230V227.486H439.792V225.79L443.826 217.317H445.979L442.042 225.588V225.729H445.558V222.354H447.456V225.746H449.267V227.486H447.474V230H445.505ZM452.448 223.452C450.91 223.452 449.952 222.345 449.952 220.561V219.91C449.952 218.196 450.928 217.089 452.448 217.089C453.969 217.089 454.944 218.196 454.944 219.91V220.561C454.944 222.345 453.995 223.452 452.448 223.452ZM461 217.317V218.697L449.873 230V228.62L461 217.317ZM452.448 222.107C453.178 222.107 453.582 221.554 453.582 220.517V220.007C453.582 218.979 453.178 218.416 452.448 218.416C451.719 218.416 451.314 218.979 451.314 220.007V220.517C451.314 221.554 451.719 222.107 452.448 222.107ZM458.425 230.237C456.878 230.237 455.929 229.139 455.929 227.354V226.704C455.929 224.99 456.904 223.874 458.425 223.874C459.945 223.874 460.921 224.99 460.921 226.704V227.354C460.921 229.139 459.963 230.237 458.425 230.237ZM458.425 228.901C459.154 228.901 459.559 228.339 459.559 227.311V226.801C459.559 225.772 459.154 225.21 458.425 225.21C457.695 225.21 457.291 225.772 457.291 226.801V227.311C457.291 228.339 457.695 228.901 458.425 228.901Z" fill="#3E4AF5"/>
<path d="M409.382 193.305V191.67H410.823C412.15 191.67 413.047 190.87 413.047 189.701C413.047 188.541 412.177 187.803 410.85 187.803C409.522 187.803 408.652 188.559 408.556 189.78H406.613C406.736 187.478 408.371 186.062 410.92 186.062C413.372 186.062 415.068 187.425 415.068 189.394C415.068 190.896 414.233 191.995 412.854 192.303V192.452C414.559 192.663 415.578 193.806 415.578 195.511C415.578 197.717 413.68 199.255 410.964 199.255C408.301 199.255 406.49 197.77 406.376 195.476H408.354C408.459 196.671 409.452 197.436 410.911 197.436C412.467 197.436 413.451 196.645 413.451 195.396C413.451 194.122 412.44 193.305 410.867 193.305H409.382ZM422.082 199.272C419.234 199.272 417.292 197.778 417.292 195.59C417.292 194.025 418.338 192.76 419.973 192.373V192.224C418.646 191.89 417.802 190.809 417.802 189.455C417.802 187.46 419.577 186.045 422.082 186.045C424.587 186.045 426.362 187.46 426.362 189.455C426.362 190.809 425.527 191.881 424.183 192.224V192.373C425.8 192.725 426.872 194.017 426.872 195.59C426.872 197.778 424.93 199.272 422.082 199.272ZM422.082 191.582C423.392 191.582 424.271 190.8 424.271 189.64C424.271 188.488 423.392 187.706 422.082 187.706C420.764 187.706 419.894 188.488 419.894 189.64C419.894 190.8 420.764 191.582 422.082 191.582ZM422.082 197.594C423.629 197.594 424.692 196.697 424.692 195.405C424.692 194.104 423.629 193.217 422.082 193.217C420.535 193.217 419.472 194.104 419.472 195.405C419.472 196.697 420.535 197.594 422.082 197.594ZM433.183 199.123C432.198 199.123 431.39 198.288 431.39 197.286C431.39 196.284 432.198 195.458 433.183 195.458C434.167 195.458 434.976 196.284 434.976 197.286C434.976 198.288 434.167 199.123 433.183 199.123ZM449.179 199H440.179V197.216H443.721V188.497H443.571L440.161 190.738V188.673L443.729 186.317H445.804V197.216H449.179V199ZM452.448 192.452C450.91 192.452 449.952 191.345 449.952 189.561V188.91C449.952 187.196 450.928 186.089 452.448 186.089C453.969 186.089 454.944 187.196 454.944 188.91V189.561C454.944 191.345 453.995 192.452 452.448 192.452ZM461 186.317V187.697L449.873 199V197.62L461 186.317ZM452.448 191.107C453.178 191.107 453.582 190.554 453.582 189.517V189.007C453.582 187.979 453.178 187.416 452.448 187.416C451.719 187.416 451.314 187.979 451.314 189.007V189.517C451.314 190.554 451.719 191.107 452.448 191.107ZM458.425 199.237C456.878 199.237 455.929 198.139 455.929 196.354V195.704C455.929 193.99 456.904 192.874 458.425 192.874C459.945 192.874 460.921 193.99 460.921 195.704V196.354C460.921 198.139 459.963 199.237 458.425 199.237ZM458.425 197.901C459.154 197.901 459.559 197.339 459.559 196.311V195.801C459.559 194.772 459.154 194.21 458.425 194.21C457.695 194.21 457.291 194.772 457.291 195.801V196.311C457.291 197.339 457.695 197.901 458.425 197.901Z" fill="#3E4AF5"/>
<path d="M274.912 842.255C272.381 842.255 270.597 840.734 270.5 838.493H272.557C272.697 839.636 273.682 840.418 274.982 840.418C276.45 840.418 277.435 839.398 277.435 837.878C277.435 836.349 276.441 835.32 274.982 835.32C273.98 835.32 273.189 835.751 272.715 836.577H270.676L271.291 829.317H278.718V831.128H272.979L272.671 834.819H272.82C273.392 834.046 274.332 833.624 275.492 833.624C277.839 833.624 279.465 835.347 279.465 837.825C279.465 840.479 277.637 842.255 274.912 842.255Z" fill="#080808"/>
<path d="M269.179 745H260.179V743.216H263.721V734.497H263.571L260.161 736.738V734.673L263.729 732.317H265.804V743.216H269.179V745ZM275.445 745.272C272.51 745.272 270.866 742.899 270.866 738.654C270.866 734.418 272.51 732.045 275.445 732.045C278.372 732.045 280.016 734.418 280.016 738.654C280.016 742.899 278.372 745.272 275.445 745.272ZM272.949 738.654C272.949 738.918 272.958 739.173 272.967 739.41L277.643 735.982C277.265 734.559 276.518 733.82 275.445 733.82C273.819 733.82 272.949 735.508 272.949 738.654ZM275.445 743.497C277.062 743.497 277.933 741.81 277.933 738.654C277.933 738.399 277.924 738.145 277.915 737.907L273.248 741.344C273.626 742.759 274.364 743.497 275.445 743.497Z" fill="#080808"/>
<path d="M269.179 648H260.179V646.216H263.721V637.497H263.571L260.161 639.738V637.673L263.729 635.317H265.804V646.216H269.179V648ZM275.349 648.255C272.817 648.255 271.033 646.734 270.937 644.493H272.993C273.134 645.636 274.118 646.418 275.419 646.418C276.887 646.418 277.871 645.398 277.871 643.878C277.871 642.349 276.878 641.32 275.419 641.32C274.417 641.32 273.626 641.751 273.151 642.577H271.112L271.728 635.317H279.154V637.128H273.415L273.107 640.819H273.257C273.828 640.046 274.769 639.624 275.929 639.624C278.275 639.624 279.901 641.347 279.901 643.825C279.901 646.479 278.073 648.255 275.349 648.255Z" fill="#080808"/>
<path d="M259.959 541.035C259.959 538.688 261.726 537.062 264.248 537.062C266.753 537.062 268.449 538.53 268.449 540.692C268.449 542.046 267.772 543.18 265.681 545.298L263 548.031V548.189H268.651V550H260.073V548.532L264.266 544.164C265.944 542.397 266.375 541.729 266.375 540.815C266.375 539.603 265.505 538.812 264.187 538.812C262.842 538.812 261.954 539.699 261.954 541.026V541.088H259.959V541.035ZM275.445 550.272C272.51 550.272 270.866 547.899 270.866 543.654C270.866 539.418 272.51 537.045 275.445 537.045C278.372 537.045 280.016 539.418 280.016 543.654C280.016 547.899 278.372 550.272 275.445 550.272ZM272.949 543.654C272.949 543.918 272.958 544.173 272.967 544.41L277.643 540.982C277.265 539.559 276.518 538.82 275.445 538.82C273.819 538.82 272.949 540.508 272.949 543.654ZM275.445 548.497C277.062 548.497 277.933 546.81 277.933 543.654C277.933 543.399 277.924 543.145 277.915 542.907L273.248 546.344C273.626 547.759 274.364 548.497 275.445 548.497Z" fill="#080808"/>
<path d="M259.959 444.035C259.959 441.688 261.726 440.062 264.248 440.062C266.753 440.062 268.449 441.53 268.449 443.692C268.449 445.046 267.772 446.18 265.681 448.298L263 451.031V451.189H268.651V453H260.073V451.532L264.266 447.164C265.944 445.397 266.375 444.729 266.375 443.815C266.375 442.603 265.505 441.812 264.187 441.812C262.842 441.812 261.954 442.699 261.954 444.026V444.088H259.959V444.035ZM275.349 453.255C272.817 453.255 271.033 451.734 270.937 449.493H272.993C273.134 450.636 274.118 451.418 275.419 451.418C276.887 451.418 277.871 450.398 277.871 448.878C277.871 447.349 276.878 446.32 275.419 446.32C274.417 446.32 273.626 446.751 273.151 447.577H271.112L271.728 440.317H279.154V442.128H273.415L273.107 445.819H273.257C273.828 445.046 274.769 444.624 275.929 444.624C278.275 444.624 279.901 446.347 279.901 448.825C279.901 451.479 278.073 453.255 275.349 453.255Z" fill="#080808"/>
<path d="M262.763 350.305V348.67H264.204C265.531 348.67 266.428 347.87 266.428 346.701C266.428 345.541 265.558 344.803 264.23 344.803C262.903 344.803 262.033 345.559 261.937 346.78H259.994C260.117 344.478 261.752 343.062 264.301 343.062C266.753 343.062 268.449 344.425 268.449 346.394C268.449 347.896 267.614 348.995 266.234 349.303V349.452C267.939 349.663 268.959 350.806 268.959 352.511C268.959 354.717 267.061 356.255 264.345 356.255C261.682 356.255 259.871 354.77 259.757 352.476H261.734C261.84 353.671 262.833 354.436 264.292 354.436C265.848 354.436 266.832 353.645 266.832 352.396C266.832 351.122 265.821 350.305 264.248 350.305H262.763ZM275.445 356.272C272.51 356.272 270.866 353.899 270.866 349.654C270.866 345.418 272.51 343.045 275.445 343.045C278.372 343.045 280.016 345.418 280.016 349.654C280.016 353.899 278.372 356.272 275.445 356.272ZM272.949 349.654C272.949 349.918 272.958 350.173 272.967 350.41L277.643 346.982C277.265 345.559 276.518 344.82 275.445 344.82C273.819 344.82 272.949 346.508 272.949 349.654ZM275.445 354.497C277.062 354.497 277.933 352.81 277.933 349.654C277.933 349.399 277.924 349.145 277.915 348.907L273.248 352.344C273.626 353.759 274.364 354.497 275.445 354.497Z" fill="#080808"/>
<path d="M262.763 253.305V251.67H264.204C265.531 251.67 266.428 250.87 266.428 249.701C266.428 248.541 265.558 247.803 264.23 247.803C262.903 247.803 262.033 248.559 261.937 249.78H259.994C260.117 247.478 261.752 246.062 264.301 246.062C266.753 246.062 268.449 247.425 268.449 249.394C268.449 250.896 267.614 251.995 266.234 252.303V252.452C267.939 252.663 268.959 253.806 268.959 255.511C268.959 257.717 267.061 259.255 264.345 259.255C261.682 259.255 259.871 257.77 259.757 255.476H261.734C261.84 256.671 262.833 257.436 264.292 257.436C265.848 257.436 266.832 256.645 266.832 255.396C266.832 254.122 265.821 253.305 264.248 253.305H262.763ZM275.349 259.255C272.817 259.255 271.033 257.734 270.937 255.493H272.993C273.134 256.636 274.118 257.418 275.419 257.418C276.887 257.418 277.871 256.398 277.871 254.878C277.871 253.349 276.878 252.32 275.419 252.32C274.417 252.32 273.626 252.751 273.151 253.577H271.112L271.728 246.317H279.154V248.128H273.415L273.107 251.819H273.257C273.828 251.046 274.769 250.624 275.929 250.624C278.275 250.624 279.901 252.347 279.901 254.825C279.901 257.479 278.073 259.255 275.349 259.255Z" fill="#080808"/>
<path d="M674 643L1008.5 507.5" stroke="#CE55D3" stroke-width="3"/>
<circle cx="1016" cy="505" r="6.55707" fill="#F5F5F5" stroke="#CE55D3" stroke-width="2.88586"/>
<path d="M551.433 971H542.433V969.216H545.975V960.497H545.825L542.415 962.738V960.673L545.983 958.317H548.058V969.216H551.433V971ZM558.419 971.272C555.484 971.272 553.84 968.899 553.84 964.654C553.84 960.418 555.484 958.045 558.419 958.045C561.346 958.045 562.99 960.418 562.99 964.654C562.99 968.899 561.346 971.272 558.419 971.272ZM555.923 964.654C555.923 964.918 555.932 965.173 555.941 965.41L560.616 961.982C560.239 960.559 559.491 959.82 558.419 959.82C556.793 959.82 555.923 961.508 555.923 964.654ZM558.419 969.497C560.036 969.497 560.907 967.81 560.907 964.654C560.907 964.399 560.898 964.145 560.889 963.907L556.222 967.344C556.6 968.759 557.338 969.497 558.419 969.497ZM573.808 965.612H567.234V964.039H569.642V958.353H569.528L567.234 959.891V958.124L569.642 956.489H571.523V964.039H573.808V965.612Z" fill="#080808"/>
<path d="M1204.43 971H1195.43V969.216H1198.97V960.497H1198.83L1195.42 962.738V960.673L1198.98 958.317H1201.06V969.216H1204.43V971ZM1211.42 971.272C1208.48 971.272 1206.84 968.899 1206.84 964.654C1206.84 960.418 1208.48 958.045 1211.42 958.045C1214.35 958.045 1215.99 960.418 1215.99 964.654C1215.99 968.899 1214.35 971.272 1211.42 971.272ZM1208.92 964.654C1208.92 964.918 1208.93 965.173 1208.94 965.41L1213.62 961.982C1213.24 960.559 1212.49 959.82 1211.42 959.82C1209.79 959.82 1208.92 961.508 1208.92 964.654ZM1211.42 969.497C1213.04 969.497 1213.91 967.81 1213.91 964.654C1213.91 964.399 1213.9 964.145 1213.89 963.907L1209.22 967.344C1209.6 968.759 1210.34 969.497 1211.42 969.497ZM1219.93 959.267C1219.93 957.5 1221.26 956.305 1223.22 956.305C1225.14 956.305 1226.43 957.377 1226.43 958.968C1226.43 959.97 1225.89 960.84 1224.33 962.308L1222.62 963.916V964.03H1226.56V965.612H1220.03V964.285L1222.97 961.411C1224.22 960.172 1224.56 959.697 1224.56 959.1C1224.56 958.344 1224 957.834 1223.16 957.834C1222.29 957.834 1221.7 958.423 1221.7 959.258V959.302H1219.93V959.267Z" fill="#080808"/>
<circle cx="673" cy="643" r="6.55707" fill="#F5F5F5" stroke="#CE55D3" stroke-width="2.88586"/>
<path d="M755 935V944" stroke="#080808" stroke-width="2"/>
<path d="M871 935V944" stroke="#080808" stroke-width="2"/>
<path d="M953 935V944" stroke="#080808" stroke-width="2"/>
<path d="M1016 935V944" stroke="#080808" stroke-width="2"/>
<path d="M1068 935V944" stroke="#080808" stroke-width="2"/>
<path d="M1149 935V944" stroke="#080808" stroke-width="2"/>
<path d="M1111 935V944" stroke="#080808" stroke-width="2"/>
<path d="M1184 935V944" stroke="#080808" stroke-width="2"/>
<path d="M1211 935V944" stroke="#080808" stroke-width="2"/>
<path d="M1410 935V944" stroke="#080808" stroke-width="2"/>
<path d="M495 935V944" stroke="#080808" stroke-width="2"/>
<path d="M529 935V944" stroke="#080808" stroke-width="2"/>
<path d="M558 935V944" stroke="#080808" stroke-width="2"/>
<path d="M363 935V944" stroke="#080808" stroke-width="2"/>
<path d="M413 935V944" stroke="#080808" stroke-width="2"/>
<path d="M458 935V944" stroke="#080808" stroke-width="2"/>
<path d="M289 836H298" stroke="#080808" stroke-width="2"/>
<path d="M289 739H298" stroke="#080808" stroke-width="2"/>
<path d="M289 642H298" stroke="#080808" stroke-width="2"/>
<path d="M289 544H298" stroke="#080808" stroke-width="2"/>
<path d="M289 447H298" stroke="#080808" stroke-width="2"/>
<path d="M289 350H298" stroke="#080808" stroke-width="2"/>
<path d="M289 253H298" stroke="#080808" stroke-width="2"/>
<path d="M297 941V156" stroke="#080808" stroke-width="1.44293"/>
<path d="M299 910.5L360.5 869.5L414.5 848.5L455 780C466 766.667 489.5 738.9 495.5 734.5C501.5 730.1 520.333 718.667 529 713.5C535.833 702.667 551.2 679 558 671C566.5 661 583.5 648 590.5 637.5C596.1 629.1 605.5 617.667 609.5 613L632 602.5L689 529.5L708 517L722 513.5L727.5 510.5L736.5 499L769.5 475H783L796.5 462.5L806.5 459L817 449L826.5 444.5L832 439L839.5 427.5L847.5 421.5H869.5L879 401L887 390.5L889 389.5H897.5L944.5 357L951 348.5L954.5 344.5L964.5 336.5H972L979.5 326H991L997.5 315H1003.5L1015 299H1026.5L1036 284L1038 283H1043L1047.5 278H1052L1062.5 267H1075.5L1084.5 246.5H1161L1166 240.5H1172.5L1175.5 235.5H1188L1195.5 224H1223L1226 219H1247L1249.5 213.5H1270L1273.5 209H1410V191.5" stroke="#3E4AF5" stroke-width="4"/>
</svg>
